# xmcd
#
# Track frame offsets:
#	150
#	29001
#	50897
#	71980
#	98705
#	128122
#	144730
#	165247
#	185509
#	210084
#	229976
#	247294
#	267701
#
# Disc length: 3819 seconds
#
# Revision: 2
# Processed by: cddbd v1.5.2PL0 Copyright (c) Steve Scherf et al.
# Submitted via: EZCDAudioConverter 2.1.7.1
#
DISCID=cc0ee90d
DTITLE=V/A - Power, Corruption and Lies Covered
DYEAR=2012
DGENRE=MOJO
TTITLE0=Golden Filter - Age Of Consent
TTITLE1=Tarwater - We All Stand
TTITLE2=Errors - The Village
TTITLE3=S.C.U.M - 586
TTITLE4=Fujiya and Miyagi - Your Silent Face
TTITLE5=Seekae - Ultraviolence
TTITLE6=Walls - Ecstasy
TTITLE7=Destroyer - Leave Me Alone
TTITLE8=Biosphere - Blue Monday
TTITLE9=Zombie Zombie - The Beach
TTITLE10=Lonelady - Cries And Whispers
TTITLE11=Anothers Blood - Lonesome Tonight
TTITLE12=K-X-P - Murder
EXTD=
EXTT0=
EXTT1=
EXTT2=
EXTT3=
EXTT4=
EXTT5=
EXTT6=
EXTT7=
EXTT8=
EXTT9=
EXTT10=
EXTT11=
EXTT12=
PLAYORDER=
